<svg width="29" height="28" viewBox="0 0 29 28" fill="none" xmlns="http://www.w3.org/2000/svg">
<path fill-rule="evenodd" clip-rule="evenodd" d="M14.5 0C6.76801 0 0.5 6.26801 0.5 14C0.5 21.732 6.76801 28 14.5 28C22.232 28 28.5 21.732 28.5 14C28.5 6.26801 22.232 0 14.5 0ZM11.1186 7.69215C11.1186 8.6267 10.3085 9.3843 9.30928 9.3843C8.31004 9.3843 7.5 8.6267 7.5 7.69215C7.5 6.7576 8.31004 6 9.30928 6C10.3085 6 11.1186 6.7576 11.1186 7.69215ZM7.74742 10.6281H10.8402V20H7.74742V10.6281ZM12.7268 10.6281H15.8196V11.8305C16.3387 11.1701 17.3354 10.4401 18.9433 10.4401C21.6508 10.4401 22.4738 11.8954 22.5 15.0537V20H19.4072C19.4072 19.3889 19.403 18.7745 19.3987 18.1604V18.1601V18.1598V18.1597V18.1595C19.3927 17.2883 19.3867 16.4175 19.3928 15.5571C19.4008 14.4345 19.411 12.9855 17.7062 12.9855C16.1977 12.9855 15.8196 14.0976 15.8196 15.2049V20H12.7268V10.6281Z" fill="white"/>
</svg>
