<svg width="29" height="28" viewBox="0 0 29 28" fill="none" xmlns="http://www.w3.org/2000/svg">
<path d="M14.5 0.345703C6.765 0.345703 0.5 6.6107 0.5 14.3457C0.5 20.5407 4.5075 25.7732 10.0725 27.6282C10.7725 27.7507 11.035 27.3307 11.035 26.9632C11.035 26.6307 11.0175 25.5282 11.0175 24.3557C7.5 25.0032 6.59 23.4982 6.31 22.7107C6.1525 22.3082 5.47 21.0657 4.875 20.7332C4.385 20.4707 3.685 19.8232 4.8575 19.8057C5.96 19.7882 6.7475 20.8207 7.01 21.2407C8.27 23.3582 10.2825 22.7632 11.0875 22.3957C11.21 21.4857 11.5775 20.8732 11.98 20.5232C8.865 20.1732 5.61 18.9657 5.61 13.6107C5.61 12.0882 6.1525 10.8282 7.045 9.8482C6.905 9.4982 6.415 8.0632 7.185 6.1382C7.185 6.1382 8.3575 5.7707 11.035 7.5732C12.155 7.2582 13.345 7.1007 14.535 7.1007C15.725 7.1007 16.915 7.2582 18.035 7.5732C20.7125 5.7532 21.885 6.1382 21.885 6.1382C22.655 8.0632 22.165 9.4982 22.025 9.8482C22.9175 10.8282 23.46 12.0707 23.46 13.6107C23.46 18.9832 20.1875 20.1732 17.0725 20.5232C17.58 20.9607 18.0175 21.8007 18.0175 23.1132C18.0175 24.9857 18 26.4907 18 26.9632C18 27.3307 18.2625 27.7682 18.9625 27.6282C21.7418 26.69 24.1568 24.9038 25.8677 22.521C27.5786 20.1383 28.4993 17.2791 28.5 14.3457C28.5 6.6107 22.235 0.345703 14.5 0.345703Z" fill="white"/>
</svg>
