<svg width="185" height="42" viewBox="0 0 185 42" fill="none" xmlns="http://www.w3.org/2000/svg">
<path d="M39.9297 3.40307V21.6448C39.5317 28.6577 32.7697 28.3671 31.8223 38.5708C31.7595 39.2524 31.445 39.8859 30.9403 40.3468C30.4357 40.8078 29.7774 41.0629 29.0948 41.0621H2.79776C2.11589 41.0622 1.4585 40.8073 0.954098 40.3472C0.449698 39.8871 0.134561 39.2549 0.0703125 38.5742V20.3291C0.468273 13.3162 7.23028 13.6084 8.17772 3.40307C8.2408 2.72145 8.55542 2.08802 9.05995 1.62688C9.56447 1.16575 10.2225 0.910141 10.9052 0.910156H37.2022C37.8847 0.910898 38.5423 1.16677 39.0467 1.62776C39.551 2.08875 39.8659 2.72174 39.9297 3.40307Z" fill="#E06027"/>
<path d="M86.4639 38.1644V11.8998C86.4639 11.2176 86.2099 10.56 85.7517 10.0558C85.2935 9.5517 84.6641 9.23744 83.987 9.17466C73.7813 9.17466 74.1472 1.36354 67.0122 1.07031H66.0561C58.9145 1.36354 59.3233 9.17466 49.0814 9.17466C48.4042 9.23744 47.7749 9.5517 47.3167 10.0558C46.8585 10.56 46.6045 11.2176 46.6045 11.8998V38.1644C46.6048 38.5513 46.6868 38.9337 46.8451 39.2866C47.0034 39.6394 47.2343 39.9546 47.5228 40.2114C47.8112 40.4682 48.1505 40.6608 48.5185 40.7766C48.8865 40.8923 49.2747 40.9286 49.6576 40.883C59.3233 40.883 59.0334 32.83 66.5317 32.83C74.03 32.83 73.3827 40.883 83.4041 40.883C83.7876 40.9299 84.1767 40.8946 84.5456 40.7794C84.9144 40.6642 85.2547 40.4717 85.544 40.2147C85.8332 39.9578 86.0647 39.6421 86.2233 39.2887C86.3819 38.9352 86.4639 38.552 86.4639 38.1644Z" fill="#3366CC"/>
<path d="M135.247 37.8764C135.293 38.2595 135.257 38.6478 135.142 39.0159C135.026 39.384 134.834 39.7234 134.578 40.0119C134.322 40.3004 134.008 40.5314 133.656 40.6895C133.304 40.8477 132.923 40.9296 132.537 40.9297H98.1349C97.7493 40.9296 97.368 40.8478 97.0163 40.6896C96.6646 40.5314 96.3504 40.3004 96.0945 40.0119C95.8386 39.7234 95.6467 39.3839 95.5316 39.0158C95.4165 38.6477 95.3807 38.2594 95.4266 37.8764C96.6001 28.0372 103.452 28.4913 103.452 21.0008C103.452 13.5103 96.6018 13.9545 95.4266 4.12355C95.3807 3.74062 95.4165 3.3523 95.5316 2.98422C95.6467 2.61613 95.8386 2.27664 96.0945 1.98812C96.3504 1.69961 96.6646 1.46863 97.0163 1.31043C97.368 1.15223 97.7493 1.07038 98.1349 1.07031H132.534C132.92 1.07041 133.301 1.15226 133.653 1.31045C134.005 1.46863 134.319 1.69958 134.575 1.98806C134.831 2.27654 135.023 2.61601 135.138 2.98409C135.254 3.35218 135.29 3.74053 135.244 4.12355C134.069 13.9628 127.217 13.5086 127.217 21.0008C127.217 28.493 134.072 28.0455 135.247 37.8764Z" fill="#7FC8E5"/>
<path d="M146.939 41.0618H173.23C173.912 41.062 174.57 40.8068 175.075 40.3463C175.579 39.8857 175.895 39.2529 175.959 38.5716C176.91 28.2796 183.777 28.6557 184.07 21.469V20.503C183.777 13.3163 176.907 13.6857 175.959 3.40209C175.895 2.72043 175.58 2.0872 175.075 1.62632C174.571 1.16544 173.913 0.910063 173.23 0.910156H146.939C145.298 0.910156 144.221 2.33913 144.22 3.98538C144.2 20.986 144.22 13.4333 144.22 20.986C144.22 28.5387 144.201 20.986 144.22 37.9866C144.221 39.6412 145.298 41.0618 146.939 41.0618Z" fill="#EFB94D"/>
</svg>
