<svg width="215" height="17" viewBox="0 0 215 17" fill="none" xmlns="http://www.w3.org/2000/svg">
<g filter="url(#filter0_d_255_2430)">
<path d="M5.104 16.5V4.004H0.528V0.769999H13.618V4.004H9.064V16.5H5.104ZM21.7039 16.852C16.7099 16.852 13.9159 13.376 13.9159 8.624C13.9159 3.894 16.7099 0.418 21.7039 0.418C26.6539 0.418 29.4919 3.894 29.4919 8.624C29.4919 13.376 26.6539 16.852 21.7039 16.852ZM21.7039 13.618C24.5639 13.618 25.4439 11.374 25.4439 8.624C25.4439 5.896 24.5639 3.652 21.7039 3.652C18.8219 3.652 17.9639 5.896 17.9639 8.624C17.9639 11.374 18.8219 13.618 21.7039 13.618ZM31.4626 16.5V0.769999H36.3026L39.5366 10.802H39.5806L42.8146 0.769999H47.6546V16.5H43.9146V6.71H43.8706L40.9446 16.5H38.1726L35.2466 6.71H35.2026V16.5H31.4626ZM50.3044 16.5V0.769999H55.1444L58.3784 10.802H58.4224L61.6564 0.769999H66.4964V16.5H62.7564V6.71H62.7124L59.7864 16.5H57.0144L54.0884 6.71H54.0444V16.5H50.3044ZM78.3499 13.222H72.9599L71.9479 16.5H67.7019L73.6859 0.769999H77.6679L83.6959 16.5H79.3619L78.3499 13.222ZM73.8619 10.208H77.4699L75.6879 4.4H75.6439L73.8619 10.208ZM90.889 6.908C93.859 7.788 96.917 8.624 96.917 11.88C96.917 14.894 94.629 16.852 90.691 16.852C86.577 16.852 83.475 14.762 83.475 11.154H87.479C87.479 12.98 88.865 13.662 90.647 13.662C92.121 13.662 92.869 13.068 92.869 12.254C92.869 10.912 91.307 10.56 89.129 9.9C86.379 9.108 83.959 8.008 83.959 5.192C83.959 1.76 86.643 0.418 90.031 0.418C93.705 0.418 96.587 2.354 96.697 5.544H92.693C92.517 4.334 91.549 3.608 90.031 3.608C88.843 3.608 88.007 4.004 88.007 4.906C88.007 5.962 88.887 6.314 90.889 6.908ZM105.815 16.852C100.821 16.852 98.0272 13.376 98.0272 8.624C98.0272 3.894 100.821 0.418 105.815 0.418C110.765 0.418 113.603 3.894 113.603 8.624C113.603 13.376 110.765 16.852 105.815 16.852ZM105.815 13.618C108.675 13.618 109.555 11.374 109.555 8.624C109.555 5.896 108.675 3.652 105.815 3.652C102.933 3.652 102.075 5.896 102.075 8.624C102.075 11.374 102.933 13.618 105.815 13.618ZM115.574 16.5V0.769999H123.208C126.486 0.769999 128.532 2.486 128.532 5.786C128.532 9.086 126.486 10.802 123.208 10.802H119.534V16.5H115.574ZM119.534 7.568H122.284C123.648 7.568 124.484 7.106 124.484 5.786C124.484 4.466 123.648 4.004 122.284 4.004H119.534V7.568ZM130.248 16.5V0.769999H137.662C141.16 0.769999 143.272 2.398 143.272 5.258C143.272 7.458 142.04 8.756 140.082 9.196V9.24C144.02 9.922 142.59 16.016 143.492 16.28V16.5H139.378C138.608 15.84 140.038 11.022 136.672 11.022H134.208V16.5H130.248ZM134.208 4.004V7.788H136.892C138.476 7.788 139.312 7.216 139.312 5.896C139.312 4.576 138.476 4.004 136.892 4.004H134.208ZM145.523 0.769999H149.483V16.5H145.523V0.769999ZM152.119 16.5V0.769999H156.079L161.579 10.12H161.623V0.769999H165.583V16.5H161.623L156.123 7.15H156.079V16.5H152.119ZM172.192 6.798H179.056V10.032H172.192V13.266H180.288V16.5H168.232V0.769999H180.156V4.004H172.192V6.798ZM186.153 16.5V4.004H181.577V0.769999H194.667V4.004H190.113V16.5H186.153ZM200.504 16.5V4.004H195.928V0.769999H209.018V4.004H204.464V16.5H200.504ZM210.857 0.769999H214.817V16.5H210.857V0.769999Z" fill="white"/>
</g>
<defs>
<filter id="filter0_d_255_2430" x="0.527832" y="0.417969" width="214.289" height="16.4336" filterUnits="userSpaceOnUse" color-interpolation-filters="sRGB">
<feFlood flood-opacity="0" result="BackgroundImageFix"/>
<feColorMatrix in="SourceAlpha" type="matrix" values="0 0 0 0 0 0 0 0 0 0 0 0 0 0 0 0 0 0 127 0" result="hardAlpha"/>
<feOffset/>
<feComposite in2="hardAlpha" operator="out"/>
<feColorMatrix type="matrix" values="0 0 0 0 1 0 0 0 0 1 0 0 0 0 1 0 0 0 0.01 0"/>
<feBlend mode="normal" in2="BackgroundImageFix" result="effect1_dropShadow_255_2430"/>
<feBlend mode="normal" in="SourceGraphic" in2="effect1_dropShadow_255_2430" result="shape"/>
</filter>
</defs>
</svg>
