<svg width="1800" height="255" viewBox="0 0 1800 255" fill="none" xmlns="http://www.w3.org/2000/svg">
<g filter="url(#filter0_d_236_2903)">
<path fill-rule="evenodd" clip-rule="evenodd" d="M1715.31 255H1621.03V242.737H1608.93V230.473H1606.43V242.737H1572.63V208.477H1584.73V171.687H1596.83V159.424H1618.53V196.214H1630.63V220.74H1642.73V233.004H1693.61V220.74H1705.71V208.477H1717.81V169.156H1705.71V156.893H1693.61V144.63H1669.42V132.366H1657.32V120.103H1633.12V95.5763H1621.03V49.0535H1633.12V24.5267H1645.22V12.2634H1657.32V0H1751.61V12.2634H1763.71V24.5267H1766.2V12.2634H1800V46.5229H1787.9V83.313H1775.8V95.5763H1754.1V58.7863H1742.01V34.2595H1729.91V21.9962H1691.12V34.2595H1679.02V46.5229H1666.92V73.5802H1679.02V85.8435H1691.12V98.1069H1703.22V110.37H1727.41V122.634H1739.51V134.897H1751.61V147.16H1763.71V205.947H1751.61V230.473H1739.51V242.737H1715.31V255ZM1734.71 225.607H1746.81V201.08H1758.91V152.027H1746.81V139.763H1734.71V127.5H1722.61V115.237H1698.41V102.973H1686.32V90.7099H1674.22V78.4466H1662.12V41.6565H1674.22V29.3931H1686.32V17.1298H1734.71V29.3931H1746.81V53.9199H1758.91V90.7099H1771V78.4466H1783.1V41.6565H1795.2V17.1298H1771V29.3931H1758.91V17.1298H1746.81V4.86641H1662.12V17.1298H1650.02V29.3931H1637.92V53.9199H1625.83V90.7099H1637.92V115.237H1662.12V127.5H1674.22V139.763H1698.41V152.027H1710.51V164.29H1722.61V213.344H1710.51V225.607H1698.41V237.87H1637.92V225.607H1625.83V201.08H1613.73V164.29H1601.63V176.553H1589.53V213.344H1577.43V237.87H1601.63V225.607H1613.73V237.87H1625.83V250.134H1710.51V237.87H1734.71V225.607Z" fill="#FF5129" fill-opacity="0.3" shape-rendering="crispEdges"/>
</g>
<g filter="url(#filter1_d_236_2903)">
<path fill-rule="evenodd" clip-rule="evenodd" d="M1485.44 233.004V255H1379.05V233.004H1403.25V220.74H1415.34V196.214H1427.44V159.424H1439.54V134.897H1451.64V98.1069H1463.74V73.5802H1475.83V36.7901H1487.93V21.9962H1461.24V34.2595H1437.04V46.5229H1424.95V58.7863H1412.85V71.0496H1400.75V83.313H1379.05V61.3168H1391.15V36.7901H1403.25V0H1618.52V46.5229H1606.42V83.313H1584.72V46.5229H1572.62V21.9962H1521.73V24.5267H1533.83V46.5229H1521.73V71.0496H1509.63V107.84H1497.53V144.63H1485.44V169.156H1473.34V205.947H1461.24V233.004H1485.44ZM1456.44 201.08H1468.54V164.29H1480.64V139.763H1492.73V102.973H1504.83V66.1832H1516.93V41.6565H1529.03V29.3931H1516.93V17.1298H1577.42V41.6565H1589.52V78.4466H1601.62V41.6565H1613.71V4.86641H1408.05V41.6565H1395.95V66.1832H1383.85V78.4466H1395.95V66.1832H1408.05V53.9199H1420.14V41.6565H1432.24V29.3931H1456.44V17.1298H1492.73V41.6565H1480.64V78.4466H1468.54V102.973H1456.44V139.763H1444.34V164.29H1432.24V201.08H1420.14V225.607H1408.05V237.87H1383.85V250.134H1480.64V237.87H1456.44V201.08Z" fill="#FF5129" fill-opacity="0.3" shape-rendering="crispEdges"/>
</g>
<g filter="url(#filter2_d_236_2903)">
<path fill-rule="evenodd" clip-rule="evenodd" d="M1279.76 255H1197.56V242.737H1173.37V230.473H1161.27V218.21H1149.17V193.683H1137.07V110.37H1149.17V73.5802H1161.27V61.3168H1173.37V49.0535H1185.47V36.7901H1197.56V24.5267H1209.66V12.2634H1233.86V0H1328.15V12.2634H1340.25V24.5267H1352.34V36.7901H1354.84V12.2634H1388.64V34.2595H1376.54V71.0496H1364.44V107.84H1342.74V71.0496H1330.64V46.5229H1318.55V34.2595H1306.45V21.9962H1267.66V34.2595H1243.46V46.5229H1231.36V58.7863H1219.26V71.0496H1207.17V95.5763H1195.07V132.366H1182.97V183.95H1195.07V208.477H1207.17V220.74H1231.36V233.004H1270.15V220.74H1294.35V208.477H1306.45V196.214H1328.15V218.21H1316.05V230.473H1303.95V242.737H1279.76V255ZM1299.15 225.607H1311.25V213.344H1323.35V201.08H1311.25V213.344H1299.15V225.607H1274.95V237.87H1226.56V225.607H1202.37V213.344H1190.27V188.817H1178.17V127.5H1190.27V90.7099H1202.37V66.1832H1214.46V53.9199H1226.56V41.6565H1238.66V29.3931H1262.86V17.1298H1311.25V29.3931H1323.35V41.6565H1335.44V66.1832H1347.54V102.973H1359.64V66.1832H1371.74V29.3931H1383.84V17.1298H1359.64V41.6565H1347.54V29.3931H1335.44V17.1298H1323.35V4.86641H1238.66V17.1298H1214.46V29.3931H1202.37V41.6565H1190.27V53.9199H1178.17V66.1832H1166.07V78.4466H1153.97V115.237H1141.88V188.817H1153.97V213.344H1166.07V225.607H1178.17V237.87H1202.37V250.134H1274.95V237.87H1299.15V225.607Z" fill="#FF5129" fill-opacity="0.3" shape-rendering="crispEdges"/>
</g>
<g filter="url(#filter3_d_236_2903)">
<path fill-rule="evenodd" clip-rule="evenodd" d="M953.146 230.473H941.048V233.004H1028.23V220.74H1052.43V208.477H1064.53V196.214H1076.62V171.687H1088.72V159.424H1110.42V193.683H1098.32V218.21H1086.23V242.737H1074.13V255H870.956V233.004H895.152V220.74H907.25V208.477H919.348V183.95H931.446V147.16H943.544V110.37H955.642V85.8435H967.74V49.0535H979.838V21.9962H955.642V0H1158.81V34.2595H1146.72V71.0496H1134.62V95.5763H1112.92V34.2595H1100.82V21.9962H1013.64V24.5267H1025.73V58.7863H1013.64V83.313H1001.54V110.37H1040.33V98.1069H1052.43V85.8435H1064.53V73.5802H1086.23V95.5763H1074.13V132.366H1062.03V169.156H1049.93V181.42H1028.23V159.424H1040.33V144.63H1028.23V132.366H989.44V156.893H977.342V181.42H965.244V218.21H953.146V230.473ZM960.443 176.553H972.541V152.027H984.639V127.5H1033.03V139.763H1045.13V164.29H1033.03V176.553H1045.13V164.29H1057.23V127.5H1069.33V90.7099H1081.42V78.4466H1069.33V90.7099H1057.23V102.973H1045.13V115.237H996.737V78.4466H1008.84V53.9199H1020.93V29.3931H1008.84V17.1298H1105.62V29.3931H1117.72V90.7099H1129.82V66.1832H1141.91V29.3931H1154.01V4.86641H960.443V17.1298H984.639V53.9199H972.541V90.7099H960.443V115.237H948.345V152.027H936.247V188.817H924.149V213.344H912.051V225.607H899.953V237.87H875.756V250.134H1069.33V237.87H1081.42V213.344H1093.52V188.817H1105.62V164.29H1093.52V176.553H1081.42V201.08H1069.33V213.344H1057.23V225.607H1033.03V237.87H936.247V225.607H948.345V213.344H960.443V176.553Z" fill="#FF5129" fill-opacity="0.3" shape-rendering="crispEdges"/>
</g>
<g filter="url(#filter4_d_236_2903)">
<path fill-rule="evenodd" clip-rule="evenodd" d="M917 46.5229H904.902V83.313H892.804V120.103H880.706V144.63H868.608V181.42H856.51V205.947H844.412V230.473H832.314V242.737H808.117V255H725.927V242.737H701.731V183.95H713.829V171.687H747.627V205.947H735.529V220.74H747.627V233.004H786.418V220.74H798.516V208.477H810.614V171.687H822.712V147.16H834.81V110.37H846.908V85.8435H859.006V49.0535H871.104V21.9962H846.908V0H953.295V21.9962H929.099V34.2595H917V46.5229ZM924.298 17.1298H948.494V4.86641H851.709V17.1298H875.905V53.9199H863.807V90.7099H851.709V115.237H839.611V152.027H827.513V176.553H815.415V213.344H803.317V225.607H791.219V237.87H742.826V225.607H730.728V201.08H742.826V176.553H718.63V188.817H706.532V237.87H730.728V250.134H803.317V237.87H827.513V225.607H839.611V201.08H851.709V176.553H863.807V139.763H875.905V115.237H888.003V78.4466H900.102V41.6565H912.2V29.3931H924.298V17.1298Z" fill="#FF5129" fill-opacity="0.3" shape-rendering="crispEdges"/>
</g>
<g filter="url(#filter5_d_236_2903)">
<path fill-rule="evenodd" clip-rule="evenodd" d="M626.525 255H520.138V242.737H508.04V230.473H495.942V218.21H483.844V193.683H471.746V110.37H483.844V85.8435H495.942V61.3168H508.04V49.0535H520.138V36.7901H532.236V24.5267H544.334V12.2634H568.53V0H662.819V12.2634H687.015V24.5267H699.113V36.7901H711.211V156.893H699.113V181.42H687.015V205.947H674.917V218.21H662.819V230.473H638.623V242.737H626.525V255ZM633.822 225.607H658.018V213.344H670.116V201.08H682.214V176.553H694.312V152.027H706.41V41.6565H694.312V29.3931H682.214V17.1298H658.018V4.86641H573.331V17.1298H549.135V29.3931H537.037V41.6565H524.939V53.9199H512.841V66.1832H500.743V90.7099H488.645V115.237H476.546V188.817H488.645V213.344H500.743V225.607H512.841V237.87H524.939V250.134H621.724V237.87H633.822V225.607ZM592.727 220.74H616.923V208.477H629.021V183.95H641.119V171.687H653.217V147.16H665.315V46.5229H653.217V34.2595H641.119V21.9962H590.23V34.2595H578.132V46.5229H566.034V58.7863H553.936V71.0496H541.838V95.5763H529.74V132.366H517.642V196.214H529.74V220.74H541.838V233.004H592.727V220.74ZM597.527 237.87H537.037V225.607H524.939V201.08H512.841V127.5H524.939V90.7099H537.037V66.1832H549.135V53.9199H561.233V41.6565H573.331V29.3931H585.429V17.1298H645.92V29.3931H658.018V41.6565H670.116V152.027H658.018V176.553H645.92V188.817H633.822V213.344H621.724V225.607H597.527V237.87Z" fill="#FF5129" fill-opacity="0.3" shape-rendering="crispEdges"/>
</g>
<g filter="url(#filter6_d_236_2903)">
<path fill-rule="evenodd" clip-rule="evenodd" d="M324.112 233.004V255H217.726V233.004H241.922V220.74H254.02V183.95H266.118V159.424H278.216V122.634H290.314V98.1069H302.412V61.3168H314.51V21.9962H290.314V0H432.995V12.2634H457.191V24.5267H469.289V95.5763H457.191V107.84H445.093V120.103H432.995V132.366H408.799V134.897H420.897V183.95H432.995V233.004H445.093V255H387.099V193.683H375.001V144.63H362.903V132.366H312.014V134.897H324.112V156.893H312.014V193.683H299.916V233.004H324.112ZM295.115 188.817H307.213V152.027H319.311V139.763H307.213V127.5H367.704V139.763H379.802V188.817H391.9V250.134H440.292V237.87H428.194V188.817H416.096V139.763H403.998V127.5H428.194V115.237H440.292V102.973H452.39V90.7099H464.489V29.3931H452.39V17.1298H428.194V4.86641H295.115V17.1298H319.311V66.1832H307.213V102.973H295.115V127.5H283.017V164.29H270.919V188.817H258.821V225.607H246.723V237.87H222.526V250.134H319.311V237.87H295.115V188.817ZM399.197 98.1069H411.295V85.8435H423.393V34.2595H411.295V21.9962H360.406V71.0496H348.308V95.5763H336.21V110.37H399.197V98.1069ZM403.998 115.237H331.409V90.7099H343.507V66.1832H355.606V17.1298H416.096V29.3931H428.194V90.7099H416.096V102.973H403.998V115.237ZM469.289 220.74V242.737H447.59V220.74H469.289ZM464.489 225.607H452.39V237.87H464.489V225.607Z" fill="#FF5129" fill-opacity="0.3" shape-rendering="crispEdges"/>
</g>
<g filter="url(#filter7_d_236_2903)">
<path fill-rule="evenodd" clip-rule="evenodd" d="M106.387 169.156H94.2884V193.683H82.1903V233.004H106.387V255H0V233.004H24.1962V220.74H36.2943V196.214H48.3924V159.424H60.4905V122.634H72.5886V98.1069H84.6867V61.3168H96.7848V21.9962H84.6867V0H227.368V12.2634H251.564V36.7901H263.662V83.313H251.564V107.84H239.466V120.103H227.368V132.366H191.073V144.63H106.387V169.156ZM186.272 127.5H222.567V115.237H234.665V102.973H246.763V78.4466H258.861V41.6565H246.763V17.1298H222.567V4.86641H89.4876V17.1298H101.586V66.1832H89.4876V102.973H77.3895V127.5H65.2914V164.29H53.1933V201.08H41.0951V225.607H28.997V237.87H4.80084V250.134H101.586V237.87H77.3895V188.817H89.4876V164.29H101.586V139.763H186.272V127.5ZM169.373 110.37H193.57V98.1069H205.668V73.5802H217.766V46.5229H205.668V34.2595H193.57V21.9962H142.681V71.0496H130.583V95.5763H118.485V122.634H169.373V110.37ZM174.174 127.5H113.684V90.7099H125.782V66.1832H137.88V17.1298H198.371V29.3931H210.469V41.6565H222.567V78.4466H210.469V102.973H198.371V115.237H174.174V127.5Z" fill="#FF5129" fill-opacity="0.3" shape-rendering="crispEdges"/>
</g>
<defs>
<filter id="filter0_d_236_2903" x="1572.63" y="0" width="227.368" height="255" filterUnits="userSpaceOnUse" color-interpolation-filters="sRGB">
<feFlood flood-opacity="0" result="BackgroundImageFix"/>
<feColorMatrix in="SourceAlpha" type="matrix" values="0 0 0 0 0 0 0 0 0 0 0 0 0 0 0 0 0 0 127 0" result="hardAlpha"/>
<feOffset/>
<feComposite in2="hardAlpha" operator="out"/>
<feColorMatrix type="matrix" values="0 0 0 0 1 0 0 0 0 1 0 0 0 0 1 0 0 0 0.01 0"/>
<feBlend mode="normal" in2="BackgroundImageFix" result="effect1_dropShadow_236_2903"/>
<feBlend mode="normal" in="SourceGraphic" in2="effect1_dropShadow_236_2903" result="shape"/>
</filter>
<filter id="filter1_d_236_2903" x="1379.05" y="0" width="239.466" height="255" filterUnits="userSpaceOnUse" color-interpolation-filters="sRGB">
<feFlood flood-opacity="0" result="BackgroundImageFix"/>
<feColorMatrix in="SourceAlpha" type="matrix" values="0 0 0 0 0 0 0 0 0 0 0 0 0 0 0 0 0 0 127 0" result="hardAlpha"/>
<feOffset/>
<feComposite in2="hardAlpha" operator="out"/>
<feColorMatrix type="matrix" values="0 0 0 0 1 0 0 0 0 1 0 0 0 0 1 0 0 0 0.01 0"/>
<feBlend mode="normal" in2="BackgroundImageFix" result="effect1_dropShadow_236_2903"/>
<feBlend mode="normal" in="SourceGraphic" in2="effect1_dropShadow_236_2903" result="shape"/>
</filter>
<filter id="filter2_d_236_2903" x="1137.07" y="0" width="251.564" height="255" filterUnits="userSpaceOnUse" color-interpolation-filters="sRGB">
<feFlood flood-opacity="0" result="BackgroundImageFix"/>
<feColorMatrix in="SourceAlpha" type="matrix" values="0 0 0 0 0 0 0 0 0 0 0 0 0 0 0 0 0 0 127 0" result="hardAlpha"/>
<feOffset/>
<feComposite in2="hardAlpha" operator="out"/>
<feColorMatrix type="matrix" values="0 0 0 0 1 0 0 0 0 1 0 0 0 0 1 0 0 0 0.01 0"/>
<feBlend mode="normal" in2="BackgroundImageFix" result="effect1_dropShadow_236_2903"/>
<feBlend mode="normal" in="SourceGraphic" in2="effect1_dropShadow_236_2903" result="shape"/>
</filter>
<filter id="filter3_d_236_2903" x="870.956" y="0" width="287.858" height="255" filterUnits="userSpaceOnUse" color-interpolation-filters="sRGB">
<feFlood flood-opacity="0" result="BackgroundImageFix"/>
<feColorMatrix in="SourceAlpha" type="matrix" values="0 0 0 0 0 0 0 0 0 0 0 0 0 0 0 0 0 0 127 0" result="hardAlpha"/>
<feOffset/>
<feComposite in2="hardAlpha" operator="out"/>
<feColorMatrix type="matrix" values="0 0 0 0 1 0 0 0 0 1 0 0 0 0 1 0 0 0 0.01 0"/>
<feBlend mode="normal" in2="BackgroundImageFix" result="effect1_dropShadow_236_2903"/>
<feBlend mode="normal" in="SourceGraphic" in2="effect1_dropShadow_236_2903" result="shape"/>
</filter>
<filter id="filter4_d_236_2903" x="701.731" y="0" width="251.564" height="255" filterUnits="userSpaceOnUse" color-interpolation-filters="sRGB">
<feFlood flood-opacity="0" result="BackgroundImageFix"/>
<feColorMatrix in="SourceAlpha" type="matrix" values="0 0 0 0 0 0 0 0 0 0 0 0 0 0 0 0 0 0 127 0" result="hardAlpha"/>
<feOffset/>
<feComposite in2="hardAlpha" operator="out"/>
<feColorMatrix type="matrix" values="0 0 0 0 1 0 0 0 0 1 0 0 0 0 1 0 0 0 0.01 0"/>
<feBlend mode="normal" in2="BackgroundImageFix" result="effect1_dropShadow_236_2903"/>
<feBlend mode="normal" in="SourceGraphic" in2="effect1_dropShadow_236_2903" result="shape"/>
</filter>
<filter id="filter5_d_236_2903" x="471.746" y="0" width="239.466" height="255" filterUnits="userSpaceOnUse" color-interpolation-filters="sRGB">
<feFlood flood-opacity="0" result="BackgroundImageFix"/>
<feColorMatrix in="SourceAlpha" type="matrix" values="0 0 0 0 0 0 0 0 0 0 0 0 0 0 0 0 0 0 127 0" result="hardAlpha"/>
<feOffset/>
<feComposite in2="hardAlpha" operator="out"/>
<feColorMatrix type="matrix" values="0 0 0 0 1 0 0 0 0 1 0 0 0 0 1 0 0 0 0.01 0"/>
<feBlend mode="normal" in2="BackgroundImageFix" result="effect1_dropShadow_236_2903"/>
<feBlend mode="normal" in="SourceGraphic" in2="effect1_dropShadow_236_2903" result="shape"/>
</filter>
<filter id="filter6_d_236_2903" x="217.726" y="0" width="251.564" height="255" filterUnits="userSpaceOnUse" color-interpolation-filters="sRGB">
<feFlood flood-opacity="0" result="BackgroundImageFix"/>
<feColorMatrix in="SourceAlpha" type="matrix" values="0 0 0 0 0 0 0 0 0 0 0 0 0 0 0 0 0 0 127 0" result="hardAlpha"/>
<feOffset/>
<feComposite in2="hardAlpha" operator="out"/>
<feColorMatrix type="matrix" values="0 0 0 0 1 0 0 0 0 1 0 0 0 0 1 0 0 0 0.01 0"/>
<feBlend mode="normal" in2="BackgroundImageFix" result="effect1_dropShadow_236_2903"/>
<feBlend mode="normal" in="SourceGraphic" in2="effect1_dropShadow_236_2903" result="shape"/>
</filter>
<filter id="filter7_d_236_2903" x="0" y="0" width="263.662" height="255" filterUnits="userSpaceOnUse" color-interpolation-filters="sRGB">
<feFlood flood-opacity="0" result="BackgroundImageFix"/>
<feColorMatrix in="SourceAlpha" type="matrix" values="0 0 0 0 0 0 0 0 0 0 0 0 0 0 0 0 0 0 127 0" result="hardAlpha"/>
<feOffset/>
<feComposite in2="hardAlpha" operator="out"/>
<feColorMatrix type="matrix" values="0 0 0 0 1 0 0 0 0 1 0 0 0 0 1 0 0 0 0.01 0"/>
<feBlend mode="normal" in2="BackgroundImageFix" result="effect1_dropShadow_236_2903"/>
<feBlend mode="normal" in="SourceGraphic" in2="effect1_dropShadow_236_2903" result="shape"/>
</filter>
</defs>
</svg>
