<svg width="54" height="54" viewBox="0 0 54 54" fill="none" xmlns="http://www.w3.org/2000/svg">
<path d="M24 0H30V6H24V0Z" fill="white"/>
<path d="M30 0H36V6H30V0Z" fill="white"/>
<path d="M36 0H42V6H36V0Z" fill="white"/>
<path d="M42 0H48V6H42V0Z" fill="white"/>
<path d="M48 0H54V6H48V0Z" fill="white"/>
<path d="M42 6H48V14H42V6Z" fill="white"/>
<path d="M48 6H54V12H48V6Z" fill="white"/>
<path d="M33 12H42V18H33V12Z" fill="white"/>
<path d="M48 12H54V18H48V12Z" fill="white"/>
<path d="M30 18H36V24H30V18Z" fill="white"/>
<path d="M48 18H54V24H48V18Z" fill="white"/>
<path d="M24 24H34V30H24V24Z" fill="white"/>
<path d="M48 24H54V30H48V24Z" fill="white"/>
<path d="M15 30H24V36H15V30Z" fill="white"/>
<path d="M9 36H18V42H9V36Z" fill="white"/>
<path d="M6 42H12V48H6V42Z" fill="white"/>
<path d="M0 48H9V54H0V48Z" fill="white"/>
</svg>
